{"asset":{"version":"2.0","generator":"THREE.GLTFExporter"},"scenes":[{"nodes":[0,1],"name":"AuxScene"}],"scene":0,"nodes":[{"matrix":[100,0,0,0,0,100,0,0,0,0,100,0,0,75,0,1],"name":"Shell (type 100)","extras":{"obb":{"center":{"x":0,"y":0,"z":0},"halfSize":{"x":0,"y":0,"z":0},"rotation":{"elements":[1,0,0,0,1,0,0,0,1]}}},"mesh":0},{"matrix":[100,0,0,0,0,100,0,0,0,0,100,0,0.6354909331575982,74.25078050004055,0,1],"name":"Horizontal shelf (type 100)","extras":{"obb":{"center":{"x":0,"y":0,"z":0},"halfSize":{"x":0,"y":0,"z":0},"rotation":{"elements":[1,0,0,0,1,0,0,0,1]}}},"mesh":1}],"bufferViews":[{"buffer":0,"byteOffset":0,"byteLength":1008,"target":34962,"byteStride":12},{"buffer":0,"byteOffset":1008,"byteLength":1008,"target":34962,"byteStride":12},{"buffer":0,"byteOffset":2016,"byteLength":1008,"target":34962,"byteStride":12},{"buffer":0,"byteOffset":3024,"byteLength":672,"target":34962,"byteStride":8},{"buffer":0,"byteOffset":3696,"byteLength":168,"target":34963},{"buffer":0,"byteOffset":3864,"byteLength":432,"target":34962,"byteStride":12},{"buffer":0,"byteOffset":4296,"byteLength":432,"target":34962,"byteStride":12},{"buffer":0,"byteOffset":4728,"byteLength":432,"target":34962,"byteStride":12},{"buffer":0,"byteOffset":5160,"byteLength":288,"target":34962,"byteStride":8},{"buffer":0,"byteOffset":5448,"byteLength":72,"target":34963}],"buffers":[{"byteLength":5520,"uri":"data:application/octet-stream;base64,"}],"accessors":[{"bufferView":0,"componentType":5126,"count":84,"max":[0.6000000238418579,0.75,0.5],"min":[-0.6000000238418579,-0.75,-0.5],"type":"VEC3"},{"bufferView":1,"componentType":5126,"count":84,"max":[1,1,1],"min":[-1,-1,-1],"type":"VEC3"},{"bufferView":2,"componentType":5126,"count":84,"max":[1,1,1],"min":[1,1,1],"type":"VEC3"},{"bufferView":3,"componentType":5126,"count":84,"max":[1,1],"min":[-5.960464477539063e-8,0],"type":"VEC2"},{"bufferView":4,"componentType":5123,"count":84,"max":[83],"min":[0],"type":"SCALAR"},{"bufferView":5,"componentType":5126,"count":36,"max":[0.5799999833106995,0.009999999776482582,0.4699999988079071],"min":[-0.5799999833106995,-0.009999999776482582,-0.4699999988079071],"type":"VEC3"},{"bufferView":6,"componentType":5126,"count":36,"max":[1,1,1],"min":[-1,-1,-1],"type":"VEC3"},{"bufferView":7,"componentType":5126,"count":36,"max":[1,1,1],"min":[1,1,1],"type":"VEC3"},{"bufferView":8,"componentType":5126,"count":36,"max":[1,1],"min":[-5.960464477539063e-8,0],"type":"VEC2"},{"bufferView":9,"componentType":5123,"count":36,"max":[35],"min":[0],"type":"SCALAR"}],"materials":[{"pbrMetallicRoughness":{"metallicFactor":0,"roughnessFactor":1,"metallicRoughnessTexture":{"index":0},"baseColorTexture":{"index":1}},"normalTexture":{"index":2,"scale":0.3},"doubleSided":true,"name":"antique_veneer","extras":{"babylonSeparateCullingPass":false}},{"pbrMetallicRoughness":{"metallicFactor":0,"roughnessFactor":1,"metallicRoughnessTexture":{"index":3},"baseColorTexture":{"index":4}},"normalTexture":{"index":5,"scale":0.3},"doubleSided":true,"name":"bamboo","extras":{"babylonSeparateCullingPass":false}}],"textures":[{"sampler":0,"source":0},{"sampler":1,"source":1},{"sampler":2,"source":2},{"sampler":3,"source":3},{"sampler":4,"source":4},{"sampler":5,"source":5}],"samplers":[{"magFilter":9729,"minFilter":9987},{"magFilter":9729,"minFilter":9987},{"magFilter":9729,"minFilter":9987},{"magFilter":9729,"minFilter":9987},{"magFilter":9729,"minFilter":9987},{"magFilter":9729,"minFilter":9987}],"images":[{"mimeType":"image/jpeg","uri":"data:image/jpeg;base64,"},{"mimeType":"image/jpeg","uri":"data:image/jpeg;base64,"},{"mimeType":"image/jpeg","uri":"data:image/jpeg;base64,"},{"mimeType":"image/jpeg","uri":"data:image/jpeg;base64,"},{"mimeType":"image/jpeg","uri":"data:image/jpeg;base64,"},{"mimeType":"image/jpeg","uri":"data:image/jpeg;base64,"}],"meshes":[{"primitives":[{"mode":4,"attributes":{"POSITION":0,"NORMAL":1,"COLOR_0":2,"TEXCOORD_0":3},"indices":4,"material":0}]},{"primitives":[{"mode":4,"attributes":{"POSITION":5,"NORMAL":6,"COLOR_0":7,"TEXCOORD_0":8},"indices":9,"material":1}]}]}